<svg id="SvgjsSvg1671" width="1494.9098410066294" height="533.1430021184063" xmlns="http://www.w3.org/2000/svg" version="1.1" xmlns:xlink="http://www.w3.org/1999/xlink" xmlns:svgjs="http://svgjs.com/svgjs"><defs id="SvgjsDefs1672"><pattern patternUnits="userSpaceOnUse" id="pattern_mark_0" width="300" height="300"><text x="150" y="100" fill="rgba(229,229,229,0.8)" font-size="18" transform="rotate(-45, 150, 150)" style="dominant-baseline: middle; text-anchor: middle;"></text></pattern><pattern patternUnits="userSpaceOnUse" id="pattern_mark_1" width="300" height="300"><text x="150" y="200" fill="rgba(229,229,229,0.8)" font-size="18" transform="rotate(-45, 150, 150)" style="dominant-baseline: middle; text-anchor: middle;"></text></pattern><marker id="SvgjsMarker1722" markerWidth="13" markerHeight="9" refX="9.5" refY="4.5" viewBox="0 0 13 9" orient="auto" markerUnits="userSpaceOnUse" stroke-dasharray="0,0"><path id="SvgjsPath1723" d="M0,0 L13,4.5 L0,9 L0,0" fill="#323232" stroke="#323232" stroke-width="1"></path></marker><marker id="SvgjsMarker1874" markerWidth="13" markerHeight="9" refX="3.5" refY="4.5" viewBox="0 0 13 9" orient="0" markerUnits="userSpaceOnUse" stroke-dasharray="0,0"><path id="SvgjsPath1875" d="M13,0 L0,4.5 L13,9 L13,0" fill="#323232" stroke="#323232" stroke-width="1"></path></marker><marker id="SvgjsMarker1890" markerWidth="13" markerHeight="9" refX="9.5" refY="4.5" viewBox="0 0 13 9" orient="auto" markerUnits="userSpaceOnUse" stroke-dasharray="0,0"><path id="SvgjsPath1891" d="M0,0 L13,4.5 L0,9 L0,0" fill="#323232" stroke="#323232" stroke-width="1"></path></marker><marker id="SvgjsMarker1972" markerWidth="13" markerHeight="9" refX="9.5" refY="4.5" viewBox="0 0 13 9" orient="auto" markerUnits="userSpaceOnUse" stroke-dasharray="0,0"><path id="SvgjsPath1973" d="M0,0 L13,4.5 L0,9 L0,0" fill="#323232" stroke="#323232" stroke-width="1"></path></marker></defs><rect id="svgbackgroundid" width="1494.9098410066294" height="533.1430021184063" fill="#ffffff"></rect><rect id="SvgjsRect1674" width="1494.9098410066294" height="533.1430021184063" fill="url(#pattern_mark_0)"></rect><rect id="SvgjsRect1675" width="1494.9098410066294" height="533.1430021184063" fill="url(#pattern_mark_1)"></rect><g id="SvgjsG1676" transform="translate(25,25.000000000000114)"><path id="SvgjsPath1677" d="M 0 0L 236.62464239325345 0L 236.62464239325345 480.9410553313683L 0 480.9410553313683Z" stroke-dasharray="1.5,2.25" stroke="rgba(50,50,50,1)" stroke-width="1.5" fill-opacity="1" fill="#e5f6da"></path><g id="SvgjsG1678"><text id="SvgjsText1679" font-family="&quot;Times New Roman&quot;" text-anchor="middle" font-size="20px" width="217px" fill="#323232" font-weight="700" align="middle" lineHeight="125%" anchor="middle" family="&quot;Times New Roman&quot;" size="20px" weight="700" font-style="" opacity="1" y="222.47052766568416" transform="rotate(0)"><tspan id="SvgjsTspan1680" dy="25" x="118.5"><tspan id="SvgjsTspan1681" style=""> </tspan></tspan></text></g></g><g id="SvgjsG1682" transform="translate(1010.9113051497034,25.80701818858563)"><path id="SvgjsPath1683" d="M 0 0L 458.998535856926 0L 458.998535856926 482.3359839298207L 0 482.3359839298207Z" stroke-dasharray="1.5,2.25" stroke="rgba(50,50,50,1)" stroke-width="1.5" fill-opacity="1" fill="#e5f6da"></path><g id="SvgjsG1684"><text id="SvgjsText1685" font-family="&quot;Times New Roman&quot;" text-anchor="middle" font-size="20px" width="439px" fill="#323232" font-weight="700" align="middle" lineHeight="125%" anchor="middle" family="&quot;Times New Roman&quot;" size="20px" weight="700" font-style="" opacity="1" y="223.16799196491036" transform="rotate(0)"><tspan id="SvgjsTspan1686" dy="25" x="229.5"><tspan id="SvgjsTspan1687" style=""> </tspan></tspan></text></g></g><g id="SvgjsG1688" transform="translate(545.6571712132709,70.67543527858834)"><path id="SvgjsPath1689" d="M 0 4Q 0 0 4 0L 186.0613905793275 0Q 190.0613905793275 0 190.0613905793275 4L 190.0613905793275 370.9218277469753Q 190.0613905793275 374.9218277469753 186.0613905793275 374.9218277469753L 4 374.9218277469753Q 0 374.9218277469753 0 370.9218277469753Z" stroke="none" fill-opacity="1" fill="#f6edc1"></path><g id="SvgjsG1690"><text id="SvgjsText1691" font-family="&quot;Microsoft YaHei&quot;, 微软雅黑, Arial" text-anchor="middle" font-size="18px" width="171px" fill="#323232" font-weight="700" align="middle" lineHeight="125%" anchor="middle" family="&quot;Microsoft YaHei&quot;, 微软雅黑, Arial" size="18px" weight="700" font-style="" opacity="1" y="171.71091387348764" transform="rotate(0)"><tspan id="SvgjsTspan1692" dy="22.5" x="95.5"><tspan id="SvgjsTspan1693" style=""> </tspan></tspan></text></g></g><g id="SvgjsG1694" transform="translate(308.4408250490096,25)"><path id="SvgjsPath1695" d="M 0 0L 656.1106466125361 0L 656.1106466125361 482.15387592118805L 0 482.15387592118805Z" stroke-dasharray="1.5,2.25" stroke="rgba(50,50,50,1)" stroke-width="1.5" fill-opacity="1" fill="#fbeada"></path><g id="SvgjsG1696"><text id="SvgjsText1697" font-family="&quot;Times New Roman&quot;" text-anchor="middle" font-size="20px" width="637px" fill="#323232" font-weight="700" align="middle" lineHeight="125%" anchor="middle" family="&quot;Times New Roman&quot;" size="20px" weight="700" font-style="" opacity="1" y="223.07693796059402" transform="rotate(0)"><tspan id="SvgjsTspan1698" dy="25" x="328.5"><tspan id="SvgjsTspan1699" style=""> </tspan></tspan></text></g></g><g id="SvgjsG1700" transform="translate(1039.1555364017695,113.54761617764666)"><path id="SvgjsPath1701" d="M 0 4Q 0 0 4 0L 177.50967741935617 0Q 181.50967741935617 0 181.50967741935617 4L 181.50967741935617 285.17746594885875Q 181.50967741935617 289.17746594885875 177.50967741935617 289.17746594885875L 4 289.17746594885875Q 0 289.17746594885875 0 285.17746594885875Z" stroke="none" fill-opacity="1" fill="#f6edc1"></path><g id="SvgjsG1702"><text id="SvgjsText1703" font-family="&quot;Microsoft YaHei&quot;, 微软雅黑, Arial" text-anchor="middle" font-size="18px" width="162px" fill="#323232" font-weight="700" align="middle" lineHeight="125%" anchor="middle" family="&quot;Microsoft YaHei&quot;, 微软雅黑, Arial" size="18px" weight="700" font-style="" opacity="1" y="128.83873297442938" transform="rotate(0)"><tspan id="SvgjsTspan1704" dy="22.5" x="91"><tspan id="SvgjsTspan1705" style=""> </tspan></tspan></text></g></g><g id="SvgjsG1706" transform="translate(42.86579293174918,113.547616177647)"><path id="SvgjsPath1707" d="M 0 4Q 0 0 4 0L 196.56263694310837 0Q 200.56263694310837 0 200.56263694310837 4L 200.56263694310837 372.0500813908034Q 200.56263694310837 376.0500813908034 196.56263694310837 376.0500813908034L 4 376.0500813908034Q 0 376.0500813908034 0 372.0500813908034Z" stroke="none" fill-opacity="1" fill="#f6edc1"></path><g id="SvgjsG1708"><text id="SvgjsText1709" font-family="&quot;Microsoft YaHei&quot;, 微软雅黑, Arial" text-anchor="middle" font-size="18px" width="181px" fill="#323232" font-weight="700" align="middle" lineHeight="125%" anchor="middle" family="&quot;Microsoft YaHei&quot;, 微软雅黑, Arial" size="18px" weight="700" font-style="" opacity="1" y="172.2750406954017" transform="rotate(0)"><tspan id="SvgjsTspan1710" dy="22.5" x="100.5"><tspan id="SvgjsTspan1711" style=""> </tspan></tspan></text></g></g><g id="SvgjsG1712" transform="translate(1062.641099651642,271.14767765529405)"><path id="SvgjsPath1713" d="M 0 4Q 0 0 4 0L 128.8000000000002 0Q 132.8000000000002 0 132.8000000000002 4L 132.8000000000002 42.659216047777406Q 132.8000000000002 46.659216047777406 128.8000000000002 46.659216047777406L 4 46.659216047777406Q 0 46.659216047777406 0 42.659216047777406Z" stroke="none" fill-opacity="1" fill="#fcf9ea"></path><g id="SvgjsG1714"><text id="SvgjsText1715" font-family="&quot;Microsoft YaHei&quot;, 微软雅黑, Arial" text-anchor="middle" font-size="15px" width="113px" fill="#323232" font-weight="400" align="middle" lineHeight="125%" anchor="middle" family="&quot;Microsoft YaHei&quot;, 微软雅黑, Arial" size="15px" weight="400" font-style="" opacity="1" y="1.454608023888703" transform="rotate(0)"><tspan id="SvgjsTspan1716" dy="18.75" x="66.5"><tspan id="SvgjsTspan1717" style="">Min-Max</tspan></tspan><tspan id="SvgjsTspan1718" dy="18.75" x="66.5"><tspan id="SvgjsTspan1719" style="">归一化</tspan></tspan></text></g></g><g id="SvgjsG1720"><path id="SvgjsPath1721" d="M1129.041099651642 317.8068937030713L1129.041099651642 328.02613079869536L1129.041099651642 328.02613079869536L1129.041099651642 336.2953678943194" stroke="#323232" stroke-width="1.5" fill="none" marker-end="url(#SvgjsMarker1722)"></path></g><g id="SvgjsG1724" transform="translate(1166.2094432302347,48.65398969372018)"><path id="SvgjsPath1725" d="M 0 4Q 0 0 4 0L 151.6 0Q 155.6 0 155.6 4L 155.6 40Q 155.6 44 151.6 44L 4 44Q 0 44 0 40Z" stroke="none" fill-opacity="1" fill="#fcf9ea"></path><g id="SvgjsG1726"><text id="SvgjsText1727" font-family="&quot;Microsoft YaHei&quot;, 微软雅黑, Arial" text-anchor="middle" font-size="20px" width="136px" fill="#323232" font-weight="700" align="middle" lineHeight="125%" anchor="middle" family="&quot;Microsoft YaHei&quot;, 微软雅黑, Arial" size="20px" weight="700" font-style="" opacity="1" y="4" transform="rotate(0)"><tspan id="SvgjsTspan1728" dy="25" x="78"><tspan id="SvgjsTspan1729" style="">健身评估指导</tspan></tspan></text></g></g><g id="SvgjsG1730" transform="matrix(-1.8369701987210297e-16,-1,1,-1.8369701987210297e-16,106.24503331338201,327.4655838504914)"><path id="SvgjsPath1731" d="M 17.215011781754004 0L 34.951690587197525 0L 34.951690587197525 51.91664881552423L 52.16670236895153 51.91664881552423L 26.083351184475767 78L 0 51.91664881552423L 17.215011781754004 51.91664881552423L 17.215011781754004 0Z" stroke="rgba(50,50,50,1)" stroke-width="1.5" fill-opacity="1" fill="#ffffee"></path><g id="SvgjsG1732"><text id="SvgjsText1733" font-family="&quot;Times New Roman&quot;" text-anchor="middle" font-size="20px" width="74px" fill="#323232" font-weight="700" align="middle" lineHeight="125%" anchor="middle" family="&quot;Times New Roman&quot;" size="20px" weight="700" font-style="" opacity="1" y="17.1" transform="rotate(0)"></text></g></g><g id="SvgjsG1734" transform="translate(81.29711140330346,48.65398969372018)"><path id="SvgjsPath1735" d="M 0 4Q 0 0 4 0L 119.7 0Q 123.7 0 123.7 4L 123.7 40Q 123.7 44 119.7 44L 4 44Q 0 44 0 40Z" stroke="none" fill-opacity="1" fill="#fcf9ea"></path><g id="SvgjsG1736"><text id="SvgjsText1737" font-family="&quot;Microsoft YaHei&quot;, 微软雅黑, Arial" text-anchor="middle" font-size="20px" width="104px" fill="#323232" font-weight="700" align="middle" lineHeight="125%" anchor="middle" family="&quot;Microsoft YaHei&quot;, 微软雅黑, Arial" size="20px" weight="700" font-style="" opacity="1" y="4" transform="rotate(0)"><tspan id="SvgjsTspan1738" dy="25" x="62"><tspan id="SvgjsTspan1739" style="">数据预处理</tspan></tspan></text></g></g><g id="SvgjsG1740" transform="translate(569.7131767450835,48.65398969372018)"><path id="SvgjsPath1741" d="M 0 4Q 0 0 4 0L 128.8 0Q 132.8 0 132.8 4L 132.8 40Q 132.8 44 128.8 44L 4 44Q 0 44 0 40Z" stroke="none" fill-opacity="1" fill="#fcf9ea"></path><g id="SvgjsG1742"><text id="SvgjsText1743" font-family="&quot;Microsoft YaHei&quot;, 微软雅黑, Arial" text-anchor="middle" font-size="20px" width="113px" fill="#323232" font-weight="700" align="middle" lineHeight="125%" anchor="middle" family="&quot;Microsoft YaHei&quot;, 微软雅黑, Arial" size="20px" weight="700" font-style="" opacity="1" y="4" transform="rotate(0)"><tspan id="SvgjsTspan1744" dy="25" x="66.5"><tspan id="SvgjsTspan1745" style="">关键点识别</tspan></tspan></text></g></g><g id="SvgjsG1746" transform="translate(87.24778019354335,288.8063355253072)"><path id="SvgjsPath1747" d="M 0 0L 93.7 0L 93.7 25.151767251189085L 0 25.151767251189085Z" stroke="none" fill="none"></path><g id="SvgjsG1748"><text id="SvgjsText1749" font-family="&quot;Microsoft YaHei&quot;, 微软雅黑, Arial" text-anchor="middle" font-size="13px" width="94px" fill="#323232" font-weight="700" align="middle" lineHeight="125%" anchor="middle" family="&quot;Microsoft YaHei&quot;, 微软雅黑, Arial" size="13px" weight="700" font-style="" opacity="1" y="1.9508836255945425" transform="rotate(0)"><tspan id="SvgjsTspan1750" dy="16.25" x="47"><tspan id="SvgjsTspan1751" style="">对齐</tspan></tspan></text></g></g><g id="SvgjsG1752" transform="matrix(-1.8369701987210297e-16,-1,1,-1.8369701987210297e-16,1230.8088441245486,297.07500902486527)"><path id="SvgjsPath1753" d="M 19.866 0L 40.333999999999996 0L 40.333999999999996 25.662568826277578L 60.2 25.662568826277578L 30.1 46.659216047777406L 0 25.662568826277578L 19.866 25.662568826277578L 19.866 0Z" stroke="rgba(50,50,50,1)" stroke-width="1.5" fill-opacity="1" fill="#ffffee"></path><g id="SvgjsG1754"><text id="SvgjsText1755" font-family="&quot;Times New Roman&quot;" text-anchor="middle" font-size="20px" width="85px" fill="#323232" font-weight="700" align="middle" lineHeight="125%" anchor="middle" family="&quot;Times New Roman&quot;" size="20px" weight="700" font-style="" opacity="1" y="2.996647221499831" transform="rotate(0)"></text></g></g><g id="SvgjsG1756" transform="translate(378.6550548736111,113.54761617764666)"><path id="SvgjsPath1757" d="M 0 0L 514.9162437429443 0L 514.9162437429443 125L 0 125Z" stroke-dasharray="1.5,2.25" stroke="rgba(50,50,50,1)" stroke-width="1.5" fill-opacity="1" fill="#e5f6da"></path><g id="SvgjsG1758"><text id="SvgjsText1759" font-family="&quot;Microsoft YaHei&quot;, 微软雅黑, Arial" text-anchor="middle" font-size="20px" width="495px" fill="#323232" font-weight="700" align="middle" lineHeight="125%" anchor="middle" family="&quot;Microsoft YaHei&quot;, 微软雅黑, Arial" size="20px" weight="700" font-style="" opacity="1" y="7" transform="rotate(0)"><tspan id="SvgjsTspan1760" dy="25" x="257.5"><tspan id="SvgjsTspan1761" style="">PyTorch</tspan></tspan><tspan id="SvgjsTspan1762" dy="25" x="257.5"><tspan id="SvgjsTspan1763" style=""> </tspan></tspan><tspan id="SvgjsTspan1764" dy="25" x="257.5"><tspan id="SvgjsTspan1765" style=""> </tspan></tspan><tspan id="SvgjsTspan1766" dy="25" x="257.5"><tspan id="SvgjsTspan1767" style="">                                   </tspan></tspan></text></g></g><g id="SvgjsG1768" transform="translate(744.8878189304826,192.75592864471173)"><path id="SvgjsPath1769" d="M 0 4Q 0 0 4 0L 125.41759154170697 0Q 129.41759154170697 0 129.41759154170697 4L 129.41759154170697 31.5Q 129.41759154170697 35.5 125.41759154170697 35.5L 4 35.5Q 0 35.5 0 31.5Z" stroke="none" fill-opacity="1" fill="#ffffee"></path><g id="SvgjsG1770"><text id="SvgjsText1771" font-family="&quot;Microsoft YaHei&quot;, 微软雅黑, Arial" text-anchor="middle" font-size="15px" width="110px" fill="#323232" font-weight="400" align="middle" lineHeight="125%" anchor="middle" family="&quot;Microsoft YaHei&quot;, 微软雅黑, Arial" size="15px" weight="400" font-style="" opacity="1" y="5.375" transform="rotate(0)"><tspan id="SvgjsTspan1772" dy="18.75" x="65"><tspan id="SvgjsTspan1773" style="">torch.optim</tspan></tspan></text></g></g><g id="SvgjsG1774" transform="translate(626.3185617925985,191.75592864471173)"><path id="SvgjsPath1775" d="M 0 4Q 0 0 4 0L 80.6 0Q 84.6 0 84.6 4L 84.6 32.5Q 84.6 36.5 80.6 36.5L 4 36.5Q 0 36.5 0 32.5Z" stroke="none" fill-opacity="1" fill="#ffffee"></path><g id="SvgjsG1776"><text id="SvgjsText1777" font-family="&quot;Microsoft YaHei&quot;, 微软雅黑, Arial" text-anchor="middle" font-size="15px" width="65px" fill="#323232" font-weight="400" align="middle" lineHeight="125%" anchor="middle" family="&quot;Microsoft YaHei&quot;, 微软雅黑, Arial" size="15px" weight="400" font-style="" opacity="1" y="5.875" transform="rotate(0)"><tspan id="SvgjsTspan1778" dy="18.75" x="42.5"><tspan id="SvgjsTspan1779" style="">torch</tspan></tspan></text></g></g><g id="SvgjsG1780" transform="translate(619.5448160607775,303.1467295369283)"><path id="SvgjsPath1781" d="M 0 0L 104.59363251602596 0L 104.59363251602596 64.26948947621203L 0 64.26948947621203Z" stroke="none" fill="none"></path><g id="SvgjsG1782"><text id="SvgjsText1783" font-family="&quot;Times New Roman&quot;" text-anchor="middle" font-size="14px" width="105px" fill="#323232" font-weight="700" align="middle" lineHeight="125%" anchor="middle" family="&quot;Times New Roman&quot;" size="14px" weight="700" font-style="" opacity="1" y="20.384744738106015" transform="rotate(0)"></text></g></g><g id="SvgjsG1784" transform="translate(637.0403433347888,283.7609507396172)"><path id="SvgjsPath1785" d="M 0 0L 104.28159801737907 0L 104.28159801737907 64.26948947621203L 0 64.26948947621203Z" stroke="none" fill="none"></path><g id="SvgjsG1786"><text id="SvgjsText1787" font-family="&quot;Times New Roman&quot;" text-anchor="middle" font-size="14px" width="105px" fill="#323232" font-weight="700" align="middle" lineHeight="125%" anchor="middle" family="&quot;Times New Roman&quot;" size="14px" weight="700" font-style="" opacity="1" y="20.384744738106015" transform="rotate(0)"></text></g></g><g id="SvgjsG1788" transform="translate(376.7859478171406,284.92505882949524)"><path id="SvgjsPath1789" d="M 0 0L 512.1638525977638 0L 512.1638525977638 204.6726387389552L 0 204.6726387389552Z" stroke-dasharray="1.5,2.25" stroke="rgba(50,50,50,1)" stroke-width="1.5" fill-opacity="1" fill="#e5f6da"></path><g id="SvgjsG1790"><text id="SvgjsText1791" font-family="&quot;Times New Roman&quot;" text-anchor="middle" font-size="20px" width="493px" fill="#323232" font-weight="700" align="top" lineHeight="125%" anchor="middle" family="&quot;Times New Roman&quot;" size="20px" weight="700" font-style="" opacity="1" y="-5.5" transform="rotate(0)"><tspan id="SvgjsTspan1792" dy="25" x="256.5"><tspan id="SvgjsTspan1793" style=""> </tspan></tspan></text></g></g><g id="SvgjsG1794" transform="translate(393.2173637548026,339.7167827163446)"><path id="SvgjsPath1795" d="M 0 0L 481.08804671738693 0L 481.08804671738693 97.19396097461257L 0 97.19396097461257Z" stroke-dasharray="1.5,2.25" stroke="rgba(50,50,50,1)" stroke-width="1.5" fill-opacity="1" fill="#fadcdb"></path><g id="SvgjsG1796"><text id="SvgjsText1797" font-family="&quot;Times New Roman&quot;" text-anchor="middle" font-size="20px" width="462px" fill="#323232" font-weight="700" align="top" lineHeight="125%" anchor="middle" family="&quot;Times New Roman&quot;" size="20px" weight="700" font-style="" opacity="1" y="-5.5" transform="rotate(0)"><tspan id="SvgjsTspan1798" dy="25" x="241"><tspan id="SvgjsTspan1799" style="">                                   </tspan></tspan></text></g></g><g id="SvgjsG1800" transform="translate(403.5220183056067,387.819137403372)"><path id="SvgjsPath1801" d="M 0 4Q 0 0 4 0L 111.70295505624287 0Q 115.70295505624287 0 115.70295505624287 4L 115.70295505624287 39.37898247484249Q 115.70295505624287 43.37898247484249 111.70295505624287 43.37898247484249L 4 43.37898247484249Q 0 43.37898247484249 0 39.37898247484249Z" stroke="none" fill-opacity="1" fill="#ffffee"></path><g id="SvgjsG1802"><text id="SvgjsText1803" font-family="&quot;Microsoft YaHei&quot;, 微软雅黑, Arial" text-anchor="middle" font-size="15px" width="96px" fill="#323232" font-weight="400" align="middle" lineHeight="125%" anchor="middle" family="&quot;Microsoft YaHei&quot;, 微软雅黑, Arial" size="15px" weight="400" font-style="" opacity="1" y="9.314491237421244" transform="rotate(0)"><tspan id="SvgjsTspan1804" dy="18.75" x="58"><tspan id="SvgjsTspan1805" style="">torch.Tensor</tspan></tspan></text></g></g><g id="SvgjsG1806" transform="translate(533.597751060747,387.819137403372)"><path id="SvgjsPath1807" d="M 0 4Q 0 0 4 0L 81.94706500003048 0Q 85.94706500003048 0 85.94706500003048 4L 85.94706500003048 39.37898247484249Q 85.94706500003048 43.37898247484249 81.94706500003048 43.37898247484249L 4 43.37898247484249Q 0 43.37898247484249 0 39.37898247484249Z" stroke="none" fill-opacity="1" fill="#ffffee"></path><g id="SvgjsG1808"><text id="SvgjsText1809" font-family="&quot;Microsoft YaHei&quot;, 微软雅黑, Arial" text-anchor="middle" font-size="15px" width="66px" fill="#323232" font-weight="400" align="middle" lineHeight="125%" anchor="middle" family="&quot;Microsoft YaHei&quot;, 微软雅黑, Arial" size="15px" weight="400" font-style="" opacity="1" y="9.314491237421244" transform="rotate(0)"><tspan id="SvgjsTspan1810" dy="18.75" x="43"><tspan id="SvgjsTspan1811" style="">torch.nn</tspan></tspan></text></g></g><g id="SvgjsG1812" transform="translate(743.0532691150561,387.819137403372)"><path id="SvgjsPath1813" d="M 0 4Q 0 0 4 0L 114.28048832446218 0Q 118.28048832446218 0 118.28048832446218 4L 118.28048832446218 39.37898247484249Q 118.28048832446218 43.37898247484249 114.28048832446218 43.37898247484249L 4 43.37898247484249Q 0 43.37898247484249 0 39.37898247484249Z" stroke="none" fill-opacity="1" fill="#ffffee"></path><g id="SvgjsG1814"><text id="SvgjsText1815" font-family="&quot;Microsoft YaHei&quot;, 微软雅黑, Arial" text-anchor="middle" font-size="15px" width="99px" fill="#323232" font-weight="400" align="middle" lineHeight="125%" anchor="middle" family="&quot;Microsoft YaHei&quot;, 微软雅黑, Arial" size="15px" weight="400" font-style="" opacity="1" y="9.314491237421244" transform="rotate(0)"><tspan id="SvgjsTspan1816" dy="18.75" x="59.5"><tspan id="SvgjsTspan1817" style="">torch.optim</tspan></tspan></text></g></g><g id="SvgjsG1818" transform="translate(634.6687640817402,387.819137403372)"><path id="SvgjsPath1819" d="M 0 4Q 0 0 4 0L 70.34573647410068 0Q 74.34573647410068 0 74.34573647410068 4L 74.34573647410068 39.37898247484249Q 74.34573647410068 43.37898247484249 70.34573647410068 43.37898247484249L 4 43.37898247484249Q 0 43.37898247484249 0 39.37898247484249Z" stroke="none" fill-opacity="1" fill="#ffffee"></path><g id="SvgjsG1820"><text id="SvgjsText1821" font-family="&quot;Microsoft YaHei&quot;, 微软雅黑, Arial" text-anchor="middle" font-size="15px" width="55px" fill="#323232" font-weight="400" align="middle" lineHeight="125%" anchor="middle" family="&quot;Microsoft YaHei&quot;, 微软雅黑, Arial" size="15px" weight="400" font-style="" opacity="1" y="9.314491237421244" transform="rotate(0)"><tspan id="SvgjsTspan1822" dy="18.75" x="37.5"><tspan id="SvgjsTspan1823" style="">torch</tspan></tspan></text></g></g><g id="SvgjsG1824" transform="translate(583.8163604870704,283.7609507396172)"><path id="SvgjsPath1825" d="M 0 0L 111.52903569962335 0L 111.52903569962335 64.50809677173615L 0 64.50809677173615Z" stroke="none" fill="none"></path><g id="SvgjsG1826"><text id="SvgjsText1827" font-family="&quot;Microsoft YaHei&quot;, 微软雅黑, Arial" text-anchor="middle" font-size="20px" width="112px" fill="#323232" font-weight="700" align="middle" lineHeight="125%" anchor="middle" family="&quot;Microsoft YaHei&quot;, 微软雅黑, Arial" size="20px" weight="700" font-style="" opacity="1" y="14.254048385868074" transform="rotate(0)"><tspan id="SvgjsTspan1828" dy="25" x="56"><tspan id="SvgjsTspan1829" style="">MindSpore</tspan></tspan></text></g></g><g id="SvgjsG1830" transform="translate(496.0197359984311,448.03718657225124)"><path id="SvgjsPath1831" d="M 0 4Q 0 0 4 0L 74.76015573983804 0Q 78.76015573983804 0 78.76015573983804 4L 78.76015573983804 22.347943412969205Q 78.76015573983804 26.347943412969205 74.76015573983804 26.347943412969205L 4 26.347943412969205Q 0 26.347943412969205 0 22.347943412969205Z" stroke="none" fill-opacity="1" fill="#ffffee"></path><g id="SvgjsG1832"><text id="SvgjsText1833" font-family="&quot;Microsoft YaHei&quot;, 微软雅黑, Arial" text-anchor="middle" font-size="15px" width="59px" fill="#323232" font-weight="400" align="middle" lineHeight="125%" anchor="middle" family="&quot;Microsoft YaHei&quot;, 微软雅黑, Arial" size="15px" weight="400" font-style="" opacity="1" y="0.7989717064846023" transform="rotate(0)"><tspan id="SvgjsTspan1834" dy="18.75" x="39.5"><tspan id="SvgjsTspan1835" style="">ms.ops</tspan></tspan></text></g></g><g id="SvgjsG1836" transform="translate(683.7613871134961,448.03718657225124)"><path id="SvgjsPath1837" d="M 0 4Q 0 0 4 0L 186.54402335869355 0Q 190.54402335869355 0 190.54402335869355 4L 190.54402335869355 22.347943412969205Q 190.54402335869355 26.347943412969205 186.54402335869355 26.347943412969205L 4 26.347943412969205Q 0 26.347943412969205 0 22.347943412969205Z" stroke="none" fill-opacity="1" fill="#ffffee"></path><g id="SvgjsG1838"><text id="SvgjsText1839" font-family="&quot;Microsoft YaHei&quot;, 微软雅黑, Arial" text-anchor="middle" font-size="15px" width="171px" fill="#323232" font-weight="400" align="middle" lineHeight="125%" anchor="middle" family="&quot;Microsoft YaHei&quot;, 微软雅黑, Arial" size="15px" weight="400" font-style="" opacity="1" y="0.7989717064846023" transform="rotate(0)"><tspan id="SvgjsTspan1840" dy="18.75" x="95.5"><tspan id="SvgjsTspan1841" style="">ms.experimental.optim</tspan></tspan></text></g></g><g id="SvgjsG1842" transform="translate(583.7613871134961,448.03718657225124)"><path id="SvgjsPath1843" d="M 0 4Q 0 0 4 0L 65.52366297539359 0Q 69.52366297539359 0 69.52366297539359 4L 69.52366297539359 22.347943412969205Q 69.52366297539359 26.347943412969205 65.52366297539359 26.347943412969205L 4 26.347943412969205Q 0 26.347943412969205 0 22.347943412969205Z" stroke="none" fill-opacity="1" fill="#ffffee"></path><g id="SvgjsG1844"><text id="SvgjsText1845" font-family="&quot;Microsoft YaHei&quot;, 微软雅黑, Arial" text-anchor="middle" font-size="15px" width="50px" fill="#323232" font-weight="400" align="middle" lineHeight="125%" anchor="middle" family="&quot;Microsoft YaHei&quot;, 微软雅黑, Arial" size="15px" weight="400" font-style="" opacity="1" y="0.7989717064846023" transform="rotate(0)"><tspan id="SvgjsTspan1846" dy="18.75" x="35"><tspan id="SvgjsTspan1847" style="">ms.nn</tspan></tspan></text></g></g><g id="SvgjsG1848" transform="translate(393.2173637548026,448.03718657225124)"><path id="SvgjsPath1849" d="M 0 4Q 0 0 4 0L 89.4011980377959 0Q 93.4011980377959 0 93.4011980377959 4L 93.4011980377959 22.347943412969205Q 93.4011980377959 26.347943412969205 89.4011980377959 26.347943412969205L 4 26.347943412969205Q 0 26.347943412969205 0 22.347943412969205Z" stroke="none" fill-opacity="1" fill="#ffffee"></path><g id="SvgjsG1850"><text id="SvgjsText1851" font-family="&quot;Microsoft YaHei&quot;, 微软雅黑, Arial" text-anchor="middle" font-size="15px" width="74px" fill="#323232" font-weight="400" align="middle" lineHeight="125%" anchor="middle" family="&quot;Microsoft YaHei&quot;, 微软雅黑, Arial" size="15px" weight="400" font-style="" opacity="1" y="0.7989717064846023" transform="rotate(0)"><tspan id="SvgjsTspan1852" dy="18.75" x="47"><tspan id="SvgjsTspan1853" style="">ms.Tensor</tspan></tspan></text></g></g><g id="SvgjsG1854" transform="translate(619.5448160607775,440.782166534122)"><path id="SvgjsPath1855" d="M 0 0L 104.59363251602596 0L 104.59363251602596 40.85798348922711L 0 40.85798348922711Z" stroke="none" fill="none"></path><g id="SvgjsG1856"><text id="SvgjsText1857" font-family="&quot;Times New Roman&quot;" text-anchor="middle" font-size="20px" width="105px" fill="#323232" font-weight="700" align="middle" lineHeight="125%" anchor="middle" family="&quot;Times New Roman&quot;" size="20px" weight="700" font-style="" opacity="1" y="2.4289917446135547" transform="rotate(0)"><tspan id="SvgjsTspan1858" dy="25" x="52.5"><tspan id="SvgjsTspan1859" style="">···</tspan></tspan></text></g></g><g id="SvgjsG1860" transform="translate(393.2173637548026,192.75592864471173)"><path id="SvgjsPath1861" d="M 0 4Q 0 0 4 0L 108.7066025779161 0Q 112.7066025779161 0 112.7066025779161 4L 112.7066025779161 31.5Q 112.7066025779161 35.5 108.7066025779161 35.5L 4 35.5Q 0 35.5 0 31.5Z" stroke="none" fill-opacity="1" fill="#ffffee"></path><g id="SvgjsG1862"><text id="SvgjsText1863" font-family="&quot;Microsoft YaHei&quot;, 微软雅黑, Arial" text-anchor="middle" font-size="15px" width="93px" fill="#323232" font-weight="400" align="middle" lineHeight="125%" anchor="middle" family="&quot;Microsoft YaHei&quot;, 微软雅黑, Arial" size="15px" weight="400" font-style="" opacity="1" y="5.375" transform="rotate(0)"><tspan id="SvgjsTspan1864" dy="18.75" x="56.5"><tspan id="SvgjsTspan1865" style="">torch.Tensor</tspan></tspan></text></g></g><g id="SvgjsG1866" transform="translate(515.1828345763556,191.75592864471173)"><path id="SvgjsPath1867" d="M 0 4Q 0 0 4 0L 96.7 0Q 100.7 0 100.7 4L 100.7 32.5Q 100.7 36.5 96.7 36.5L 4 36.5Q 0 36.5 0 32.5Z" stroke="none" fill-opacity="1" fill="#ffffee"></path><g id="SvgjsG1868"><text id="SvgjsText1869" font-family="&quot;Microsoft YaHei&quot;, 微软雅黑, Arial" text-anchor="middle" font-size="15px" width="81px" fill="#323232" font-weight="400" align="middle" lineHeight="125%" anchor="middle" family="&quot;Microsoft YaHei&quot;, 微软雅黑, Arial" size="15px" weight="400" font-style="" opacity="1" y="5.875" transform="rotate(0)"><tspan id="SvgjsTspan1870" dy="18.75" x="50.5"><tspan id="SvgjsTspan1871" style="">torch.nn</tspan></tspan></text></g></g><g id="SvgjsG1872"><path id="SvgjsPath1873" d="M877.0054104721885 388.3137632036512L904.3054104721896 388.3137632036512L904.3054104721896 167.81968797001707L875.0554104721896 167.81968797001707" stroke="#323232" stroke-width="1.5" fill="none" marker-start="url(#SvgjsMarker1874)"></path></g><g id="SvgjsG1876" transform="translate(393.2173637548026,151.35156763266957)"><path id="SvgjsPath1877" d="M 0 4Q 0 0 4 0L 477.08804671738693 0Q 481.08804671738693 0 481.08804671738693 4L 481.08804671738693 28.936240674694993Q 481.08804671738693 32.93624067469499 477.08804671738693 32.93624067469499L 4 32.93624067469499Q 0 32.93624067469499 0 28.936240674694993Z" stroke-dasharray="1.5,2.25" stroke="rgba(50,50,50,1)" stroke-width="1.5" fill-opacity="1" fill="#fadcdb"></path><g id="SvgjsG1878"><text id="SvgjsText1879" font-family="&quot;Microsoft YaHei&quot;, 微软雅黑, Arial" text-anchor="middle" font-size="20px" width="462px" fill="#323232" font-weight="400" align="middle" lineHeight="125%" anchor="middle" family="&quot;Microsoft YaHei&quot;, 微软雅黑, Arial" size="20px" weight="400" font-style="" opacity="1" y="-1.5318796626525035" transform="rotate(0)"><tspan id="SvgjsTspan1880" dy="25" x="241"><tspan id="SvgjsTspan1881" style="">Yolov8</tspan></tspan></text></g></g><g id="SvgjsG1882" transform="translate(678.9685617925982,188.00592864471173)"><path id="SvgjsPath1883" d="M 0 0L 100.7 0L 100.7 44L 0 44Z" stroke="none" fill="none"></path><g id="SvgjsG1884"><text id="SvgjsText1885" font-family="&quot;Times New Roman&quot;" text-anchor="middle" font-size="20px" width="101px" fill="#323232" font-weight="700" align="middle" lineHeight="125%" anchor="middle" family="&quot;Times New Roman&quot;" size="20px" weight="700" font-style="" opacity="1" y="4" transform="rotate(0)"><tspan id="SvgjsTspan1886" dy="25" x="50.5"><tspan id="SvgjsTspan1887" style="">···</tspan></tspan></text></g></g><g id="SvgjsG1888"><path id="SvgjsPath1889" d="M392.88104308849756 388.3137632036512L363.2173637548026 388.3137632036512L363.2173637548026 167.81968797001707L390.51736375480255 167.81968797001707" stroke="#323232" stroke-width="1.5" fill="none" marker-end="url(#SvgjsMarker1890)"></path></g><g id="SvgjsG1892" transform="translate(583.7613871134961,347.8191374033721)"><path id="SvgjsPath1893" d="M 0 0L 111.6389824467719 0L 111.6389824467719 40L 0 40Z" stroke="none" fill="none"></path><g id="SvgjsG1894"><text id="SvgjsText1895" font-family="&quot;Microsoft YaHei&quot;, 微软雅黑, Arial" text-anchor="middle" font-size="20px" width="112px" fill="#323232" font-weight="400" align="middle" lineHeight="125%" anchor="middle" family="&quot;Microsoft YaHei&quot;, 微软雅黑, Arial" size="20px" weight="400" font-style="" opacity="1" y="2" transform="rotate(0)"><tspan id="SvgjsTspan1896" dy="25" x="56"><tspan id="SvgjsTspan1897" style="">MindTorch</tspan></tspan></text></g></g><g id="SvgjsG1898" transform="translate(679.3185617925985,391.1981198782149)"><path id="SvgjsPath1899" d="M 0 0L 100 0L 100 40L 0 40Z" stroke="none" fill="none"></path><g id="SvgjsG1900"><text id="SvgjsText1901" font-family="&quot;Times New Roman&quot;" text-anchor="middle" font-size="20px" width="100px" fill="#323232" font-weight="700" align="middle" lineHeight="125%" anchor="middle" family="&quot;Times New Roman&quot;" size="20px" weight="700" font-style="" opacity="1" y="2" transform="rotate(0)"><tspan id="SvgjsTspan1902" dy="25" x="50"><tspan id="SvgjsTspan1903" style="">···</tspan></tspan></text></g></g><g id="SvgjsG1904" transform="translate(1058.8410996516423,142.29074148411405)"><path id="SvgjsPath1905" d="M 0 4Q 0 0 4 0L 136.4 0Q 140.4 0 140.4 4L 140.4 35.23615894926736Q 140.4 39.23615894926736 136.4 39.23615894926736L 4 39.23615894926736Q 0 39.23615894926736 0 35.23615894926736Z" stroke="none" fill="none"></path><g id="SvgjsG1906"><text id="SvgjsText1907" font-family="&quot;Microsoft YaHei&quot;, 微软雅黑, Arial" text-anchor="middle" font-size="18px" width="121px" fill="#323232" font-weight="400" align="middle" lineHeight="125%" anchor="middle" family="&quot;Microsoft YaHei&quot;, 微软雅黑, Arial" size="18px" weight="400" font-style="" opacity="1" y="3.8680794746336815" transform="rotate(0)"><tspan id="SvgjsTspan1908" dy="22.5" x="70.5"><tspan id="SvgjsTspan1909" style="font-weight: bold;">姿态对齐</tspan></tspan></text></g></g><g id="SvgjsG1910" transform="translate(1277.7017212885548,113.54761617764666)"><path id="SvgjsPath1911" d="M 0 4Q 0 0 4 0L 50.690881437636094 0Q 54.690881437636094 0 54.690881437636094 4L 54.690881437636094 372.0500813908037Q 54.690881437636094 376.0500813908037 50.690881437636094 376.0500813908037L 4 376.0500813908037Q 0 376.0500813908037 0 372.0500813908037Z" stroke="none" fill-opacity="1" fill="#f6edc1"></path><g id="SvgjsG1912"><text id="SvgjsText1913" font-family="&quot;Microsoft YaHei&quot;, 微软雅黑, Arial" text-anchor="middle" font-size="18px" width="35px" fill="#323232" font-weight="700" align="middle" lineHeight="125%" anchor="middle" family="&quot;Microsoft YaHei&quot;, 微软雅黑, Arial" size="18px" weight="700" font-style="" opacity="1" y="116.27504069540186" transform="rotate(0)"><tspan id="SvgjsTspan1914" dy="22.5" x="27.5"><tspan id="SvgjsTspan1915" style="">角</tspan></tspan><tspan id="SvgjsTspan1916" dy="22.5" x="27.5"><tspan id="SvgjsTspan1917" style="">度</tspan></tspan><tspan id="SvgjsTspan1918" dy="22.5" x="27.5"><tspan id="SvgjsTspan1919" style="">特</tspan></tspan><tspan id="SvgjsTspan1920" dy="22.5" x="27.5"><tspan id="SvgjsTspan1921" style="">征</tspan></tspan><tspan id="SvgjsTspan1922" dy="22.5" x="27.5"><tspan id="SvgjsTspan1923" style="">构</tspan></tspan><tspan id="SvgjsTspan1924" dy="22.5" x="27.5"><tspan id="SvgjsTspan1925" style="">造</tspan></tspan></text></g></g><g id="SvgjsG1926" transform="matrix(-1.8369701987210297e-16,-1,1,-1.8369701987210297e-16,1342.2259583823611,295.53742662740433)"><path id="SvgjsPath1927" d="M 19.866 0L 40.333999999999996 0L 40.333999999999996 25.662568826277578L 60.2 25.662568826277578L 30.1 46.659216047777406L 0 25.662568826277578L 19.866 25.662568826277578L 19.866 0Z" stroke="rgba(50,50,50,1)" stroke-width="1.5" fill-opacity="1" fill="#ffffee"></path><g id="SvgjsG1928"><text id="SvgjsText1929" font-family="&quot;Times New Roman&quot;" text-anchor="middle" font-size="20px" width="85px" fill="#323232" font-weight="700" align="middle" lineHeight="125%" anchor="middle" family="&quot;Times New Roman&quot;" size="20px" weight="700" font-style="" opacity="1" y="2.996647221499831" transform="rotate(0)"></text></g></g><g id="SvgjsG1930" transform="translate(54.83533655763404,238.54761617764666)"><path id="SvgjsPath1931" d="M 0 4Q 0 0 4 0L 37.78064215209633 0Q 41.78064215209633 0 41.78064215209633 4L 41.78064215209633 121.66920594651037Q 41.78064215209633 125.66920594651037 37.78064215209633 125.66920594651037L 4 125.66920594651037Q 0 125.66920594651037 0 121.66920594651037Z" stroke="none" fill-opacity="1" fill="#fcf9ea"></path><g id="SvgjsG1932"><text id="SvgjsText1933" font-family="&quot;Microsoft YaHei&quot;, 微软雅黑, Arial" text-anchor="middle" font-size="18px" width="22px" fill="#323232" font-weight="700" align="middle" lineHeight="125%" anchor="middle" family="&quot;Microsoft YaHei&quot;, 微软雅黑, Arial" size="18px" weight="700" font-style="" opacity="1" y="13.584602973255187" transform="rotate(0)"><tspan id="SvgjsTspan1934" dy="22.5" x="21"><tspan id="SvgjsTspan1935" style="">原</tspan></tspan><tspan id="SvgjsTspan1936" dy="22.5" x="21"><tspan id="SvgjsTspan1937" style="">始</tspan></tspan><tspan id="SvgjsTspan1938" dy="22.5" x="21"><tspan id="SvgjsTspan1939" style="">数</tspan></tspan><tspan id="SvgjsTspan1940" dy="22.5" x="21"><tspan id="SvgjsTspan1941" style="">据</tspan></tspan></text></g></g><g id="SvgjsG1942" transform="translate(189.67824409687637,238.54761617764666)"><path id="SvgjsPath1943" d="M 0 4Q 0 0 4 0L 37.78064215209633 0Q 41.78064215209633 0 41.78064215209633 4L 41.78064215209633 121.66920594651037Q 41.78064215209633 125.66920594651037 37.78064215209633 125.66920594651037L 4 125.66920594651037Q 0 125.66920594651037 0 121.66920594651037Z" stroke="none" fill-opacity="1" fill="#fcf9ea"></path><g id="SvgjsG1944"><text id="SvgjsText1945" font-family="&quot;Microsoft YaHei&quot;, 微软雅黑, Arial" text-anchor="middle" font-size="18px" width="22px" fill="#323232" font-weight="700" align="middle" lineHeight="125%" anchor="middle" family="&quot;Microsoft YaHei&quot;, 微软雅黑, Arial" size="18px" weight="700" font-style="" opacity="1" y="13.584602973255187" transform="rotate(0)"><tspan id="SvgjsTspan1946" dy="22.5" x="21"><tspan id="SvgjsTspan1947" style="">单</tspan></tspan><tspan id="SvgjsTspan1948" dy="22.5" x="21"><tspan id="SvgjsTspan1949" style="">位</tspan></tspan><tspan id="SvgjsTspan1950" dy="22.5" x="21"><tspan id="SvgjsTspan1951" style="">数</tspan></tspan><tspan id="SvgjsTspan1952" dy="22.5" x="21"><tspan id="SvgjsTspan1953" style="">据</tspan></tspan></text></g></g><g id="SvgjsG1954" transform="matrix(-1.8369701987210297e-16,-1,1,-1.8369701987210297e-16,266.53273315429686,287.4205352783203)"><path id="SvgjsPath1955" d="M 14.486999999999998 0L 29.412999999999997 0L 29.412999999999997 20.349999999999994L 43.9 20.349999999999994L 21.95 37L 0 20.349999999999994L 14.486999999999998 20.349999999999994L 14.486999999999998 0Z" stroke="rgba(50,50,50,1)" stroke-width="1.5" fill-opacity="1" fill="#ffffee"></path><g id="SvgjsG1956"><text id="SvgjsText1957" font-family="&quot;Times New Roman&quot;" text-anchor="middle" font-size="20px" width="62px" fill="#323232" font-weight="700" align="middle" lineHeight="125%" anchor="middle" family="&quot;Times New Roman&quot;" size="20px" weight="700" font-style="" opacity="1" y="-1.3499999999999996" transform="rotate(0)"></text></g></g><g id="SvgjsG1958" transform="translate(1062.6410996516424,199.03172871308345)"><path id="SvgjsPath1959" d="M 0 4Q 0 0 4 0L 128.8000000000002 0Q 132.8000000000002 0 132.8000000000002 4L 132.8000000000002 42.659216047777406Q 132.8000000000002 46.659216047777406 128.8000000000002 46.659216047777406L 4 46.659216047777406Q 0 46.659216047777406 0 42.659216047777406Z" stroke="none" fill-opacity="1" fill="#fcf9ea"></path><g id="SvgjsG1960"><text id="SvgjsText1961" font-family="&quot;Microsoft YaHei&quot;, 微软雅黑, Arial" text-anchor="middle" font-size="15px" width="113px" fill="#323232" font-weight="400" align="middle" lineHeight="125%" anchor="middle" family="&quot;Microsoft YaHei&quot;, 微软雅黑, Arial" size="15px" weight="400" font-style="" opacity="1" y="10.954608023888703" transform="rotate(0)"><tspan id="SvgjsTspan1962" dy="18.75" x="66.5"><tspan id="SvgjsTspan1963" style="">中心化</tspan></tspan></text></g></g><g id="SvgjsG1964" transform="translate(1062.641099651642,338.24536789431943)"><path id="SvgjsPath1965" d="M 0 4Q 0 0 4 0L 128.8000000000002 0Q 132.8000000000002 0 132.8000000000002 4L 132.8000000000002 42.659216047777406Q 132.8000000000002 46.659216047777406 128.8000000000002 46.659216047777406L 4 46.659216047777406Q 0 46.659216047777406 0 42.659216047777406Z" stroke="none" fill-opacity="1" fill="#fcf9ea"></path><g id="SvgjsG1966"><text id="SvgjsText1967" font-family="&quot;Microsoft YaHei&quot;, 微软雅黑, Arial" text-anchor="middle" font-size="15px" width="113px" fill="#323232" font-weight="400" align="middle" lineHeight="125%" anchor="middle" family="&quot;Microsoft YaHei&quot;, 微软雅黑, Arial" size="15px" weight="400" font-style="" opacity="1" y="10.954608023888703" transform="rotate(0)"><tspan id="SvgjsTspan1968" dy="18.75" x="66.5"><tspan id="SvgjsTspan1969" style="">旋转坐标轴</tspan></tspan></text></g></g><g id="SvgjsG1970"><path id="SvgjsPath1971" d="M1129.0410996516425 245.6909447608607L1129.0410996516425 258.4193112080774L1129.0410996516425 258.4193112080774L1129.0410996516425 269.197677655294" stroke="#323232" stroke-width="1.5" fill="none" marker-end="url(#SvgjsMarker1972)"></path></g><g id="SvgjsG1974" transform="translate(1038.361757599927,442.938481520673)"><path id="SvgjsPath1975" d="M 0 4Q 0 0 4 0L 179.09723502304178 0Q 183.09723502304178 0 183.09723502304178 4L 183.09723502304178 42.659216047777406Q 183.09723502304178 46.659216047777406 179.09723502304178 46.659216047777406L 4 46.659216047777406Q 0 46.659216047777406 0 42.659216047777406Z" stroke="none" fill-opacity="1" fill="#fcf9ea"></path><g id="SvgjsG1976"><text id="SvgjsText1977" font-family="&quot;Microsoft YaHei&quot;, 微软雅黑, Arial" text-anchor="middle" font-size="15px" width="164px" fill="#323232" font-weight="400" align="middle" lineHeight="125%" anchor="middle" family="&quot;Microsoft YaHei&quot;, 微软雅黑, Arial" size="15px" weight="400" font-style="" opacity="1" y="10.954608023888703" transform="rotate(0)"><tspan id="SvgjsTspan1978" dy="18.75" x="92"><tspan id="SvgjsTspan1979" style="">标准数据</tspan></tspan></text></g></g><g id="SvgjsG1980" transform="matrix(6.123233995736766e-17,1,-1,6.123233995736766e-17,1142.4983398627085,407.7943312749087)"><path id="SvgjsPath1981" d="M 0 12.487369504355454L 12.487369504355453 0L 12.487369504355453 8.241663872874598L 20.56948332172556 8.241663872874598L 20.56948332172556 0L 33.05685282608101 12.487369504355454L 20.56948332172556 24.97473900871091L 20.56948332172556 16.73307513583631L 12.487369504355453 16.73307513583631L 12.487369504355453 24.97473900871091L 0 12.487369504355454Z" stroke="rgba(50,50,50,1)" stroke-width="1.5" fill-opacity="1" fill="#ffffee"></path><g id="SvgjsG1982"><text id="SvgjsText1983" font-family="&quot;Times New Roman&quot;" text-anchor="middle" font-size="20px" width="34px" fill="#323232" font-weight="700" align="middle" lineHeight="125%" anchor="middle" family="&quot;Times New Roman&quot;" size="20px" weight="700" font-style="" opacity="1" y="-5.512630495644547" transform="rotate(0)"></text></g></g><g id="SvgjsG1984" transform="translate(1393.6482831059575,113.54761617764666)"><path id="SvgjsPath1985" d="M 0 4Q 0 0 4 0L 50.690881437636094 0Q 54.690881437636094 0 54.690881437636094 4L 54.690881437636094 372.05008139080377Q 54.690881437636094 376.05008139080377 50.690881437636094 376.05008139080377L 4 376.05008139080377Q 0 376.05008139080377 0 372.05008139080377Z" stroke="none" fill-opacity="1" fill="#f6edc1"></path><g id="SvgjsG1986"><text id="SvgjsText1987" font-family="&quot;Microsoft YaHei&quot;, 微软雅黑, Arial" text-anchor="middle" font-size="18px" width="35px" fill="#323232" font-weight="700" align="middle" lineHeight="125%" anchor="middle" family="&quot;Microsoft YaHei&quot;, 微软雅黑, Arial" size="18px" weight="700" font-style="" opacity="1" y="127.27504069540188" transform="rotate(0)"><tspan id="SvgjsTspan1988" dy="22.5" x="27.5"><tspan id="SvgjsTspan1989" style="">cos</tspan></tspan><tspan id="SvgjsTspan1990" dy="22.5" x="27.5"><tspan id="SvgjsTspan1991" style="">评</tspan></tspan><tspan id="SvgjsTspan1992" dy="22.5" x="27.5"><tspan id="SvgjsTspan1993" style="">分</tspan></tspan><tspan id="SvgjsTspan1994" dy="22.5" x="27.5"><tspan id="SvgjsTspan1995" style="">指</tspan></tspan><tspan id="SvgjsTspan1996" dy="22.5" x="27.5"><tspan id="SvgjsTspan1997" style="">导</tspan></tspan></text></g></g><g id="SvgjsG1998" transform="matrix(-1.8369701987210297e-16,-1,1,-1.8369701987210297e-16,970.4612915039063,285.99196166992186)"><path id="SvgjsPath1999" d="M 14.486999999999998 0L 29.412999999999997 0L 29.412999999999997 20.349999999999994L 43.9 20.349999999999994L 21.95 37L 0 20.349999999999994L 14.486999999999998 20.349999999999994L 14.486999999999998 0Z" stroke="rgba(50,50,50,1)" stroke-width="1.5" fill-opacity="1" fill="#ffffee"></path><g id="SvgjsG2000"><text id="SvgjsText2001" font-family="&quot;Times New Roman&quot;" text-anchor="middle" font-size="20px" width="62px" fill="#323232" font-weight="700" align="middle" lineHeight="125%" anchor="middle" family="&quot;Times New Roman&quot;" size="20px" weight="700" font-style="" opacity="1" y="-1.3499999999999996" transform="rotate(0)"></text></g></g><g id="SvgjsG2002"></g></svg>